<?xml version="1.0" encoding="utf-8"?>
<!-- Generator: Adobe Illustrator 22.0.0, SVG Export Plug-In . SVG Version: 6.00 Build 0)  -->
<svg version="1.1" id="Calque_1" xmlns="http://www.w3.org/2000/svg" xmlns:xlink="http://www.w3.org/1999/xlink" x="0px" y="0px"
	 viewBox="0 0 24 24" style="enable-background:new 0 0 24 24;" xml:space="preserve">
<g>
	<polygon points="11.1,16.4 16.4,7.3 13.4,7.3 16.4,1.3 8.8,1.3 8.8,9.6 11.1,9.6 	"/>
	<path d="M17.6,15.9c0-0.2,0.1-0.5,0.1-0.7c0-0.3,0-0.5-0.1-0.7l1.6-1.3c0.1-0.1,0.2-0.3,0.1-0.5l-1.5-2.6c-0.1-0.2-0.3-0.2-0.5-0.2
		l-1.7,0.7L14,13.4c0.4,0.5,0.7,1.1,0.7,1.7c0,1.5-1.2,2.7-2.7,2.7c-1.5,0-2.7-1.2-2.7-2.7c0-0.7,0.3-1.4,0.8-1.9v-2.3H7.9v-0.6
		L6.7,9.9c-0.2-0.1-0.4,0-0.5,0.2l-1.5,2.6c-0.1,0.2-0.1,0.4,0.1,0.5l1.6,1.3c0,0.2-0.1,0.5-0.1,0.7c0,0.3,0,0.5,0.1,0.7l-1.6,1.3
		c-0.1,0.1-0.2,0.3-0.1,0.5l1.5,2.6c0.1,0.2,0.3,0.2,0.5,0.2l1.9-0.8c0.4,0.3,0.8,0.6,1.3,0.7l0.3,2c0,0.2,0.2,0.3,0.4,0.3h3
		c0.2,0,0.3-0.1,0.4-0.3l0.3-2c0.5-0.2,0.9-0.4,1.3-0.7l1.9,0.8c0.2,0.1,0.4,0,0.5-0.2l1.5-2.6c0.1-0.2,0.1-0.4-0.1-0.5L17.6,15.9z"
		/>
</g>
</svg>
