<?xml version="1.0" encoding="utf-8"?>
<!-- Generator: Adobe Illustrator 22.0.0, SVG Export Plug-In . SVG Version: 6.00 Build 0)  -->
<svg version="1.1" id="Calque_1" xmlns="http://www.w3.org/2000/svg" xmlns:xlink="http://www.w3.org/1999/xlink" x="0px" y="0px"
	 viewBox="0 0 24 24" style="enable-background:new 0 0 24 24;" xml:space="preserve">
<g>
	<circle cx="4.6" cy="14.4" r="1.2"/>
	<path d="M5.7,15.9C5.7,15.9,5.7,15.9,5.7,15.9c-0.1-0.1-0.2-0.1-0.3-0.1H3.9c-0.1,0-0.2,0-0.2,0.1c0,0,0,0-0.1,0L2,17.4
		c-0.2,0.1-0.2,0.4,0,0.5C2,18,2.1,18,2.2,18c0.1,0,0.2,0,0.3-0.1l1-1v0.9h2.2V17l1,1C6.8,18,6.9,18,7,18c0.1,0,0.2,0,0.3-0.1
		c0.1-0.2,0.1-0.4,0-0.5L5.7,15.9z"/>
	<path d="M3.8,19.5l0.4-0.4l-0.8-0.7L2.8,19c-0.2,0.2-0.2,0.4-0.1,0.6l0.5,1.2c0.1,0.2,0.3,0.3,0.5,0.3c0.1,0,0.1,0,0.2,0
		c0.3-0.1,0.4-0.4,0.3-0.7L3.8,19.5z"/>
	<path d="M5.8,18.4L5,19.1l0.4,0.4L5,20.4c-0.1,0.3,0,0.6,0.3,0.7c0.1,0,0.1,0,0.2,0c0.2,0,0.4-0.1,0.5-0.3l0.5-1.2
		c0.1-0.2,0-0.5-0.1-0.6L5.8,18.4z"/>
	<path d="M10.4,13.6c0.2,0.1,0.4,0.1,0.6,0.1c0.2,0,0.4-0.1,0.6-0.1c0.4-0.2,0.7-0.7,0.7-1.2c0-0.7-0.6-1.3-1.3-1.3
		c-0.7,0-1.3,0.6-1.3,1.3C9.7,13,10,13.4,10.4,13.6z"/>
	<path d="M21.3,7.7c-0.3-0.4-0.5-0.6-0.8-0.8c-0.3-0.1-0.5-0.2-0.6-0.2c0,0,0,0,0,0h-3c0,0,0,0,0,0c-0.1,0-0.4,0-0.6,0.2
		c-0.4,0.2-0.9,0.7-1.2,1.5c-0.3,0.8-0.5,2-0.5,3.7c0,0.5,0,0.9,0,1.5c0,0.3,0.3,0.6,0.6,0.6c0,0,0,0,0,0c0.3,0,0.6-0.3,0.6-0.7
		c0-0.5,0-1,0-1.4c0-1.9,0.3-2.9,0.5-3.5v11.6c0,0.5,0.4,1,1,1c0.5,0,1-0.4,1-1v-7h0.4v7c0,0.5,0.4,1,1,1c0.5,0,1-0.4,1-1V8.6
		c0,0.1,0.1,0.2,0.1,0.3c0.2,0.6,0.4,1.6,0.4,3.1c0,0.4,0,0.9,0,1.4c0,0.3,0.2,0.6,0.6,0.7c0,0,0,0,0,0c0.3,0,0.6-0.3,0.6-0.6
		c0-0.5,0-1,0-1.5C22.2,9.8,21.8,8.5,21.3,7.7z"/>
	<circle cx="18.3" cy="4.6" r="1.7"/>
	<path d="M13.3,16.8c0-1.2-0.3-1.9-0.6-2.3c-0.2-0.3-0.4-0.4-0.6-0.5c0,0,0,0,0,0c-0.1,0-0.2-0.1-0.2-0.1c-0.1,0-0.1,0-0.2,0
		c-0.1,0.2-0.3,0.4-0.6,0.4c-0.3,0-0.6-0.2-0.6-0.4c-0.1,0-0.1,0-0.2,0v0c0,0-0.1,0-0.2,0.1c0,0,0,0,0,0c-0.2,0.1-0.4,0.2-0.6,0.5
		c-0.3,0.4-0.6,1.1-0.6,2.3l0,0.2c0,0,0,0,0,0c0,0.1,0,0.2,0,0.3c0,0.2,0.2,0.4,0.4,0.4c0,0,0,0,0,0c0.2,0,0.4-0.2,0.4-0.4
		c0,0,0-0.1,0-0.1l0-0.2c0-0.8,0.1-1.2,0.3-1.6v1.2v0.3v3.7c0,0.3,0.2,0.5,0.5,0.5c0.3,0,0.5-0.2,0.5-0.5v-2.4h0.4v2.4
		c0,0.3,0.2,0.5,0.5,0.5c0.3,0,0.5-0.2,0.5-0.5v-3.7l0-0.3v-1.2c0.1,0.3,0.2,0.8,0.3,1.6l0,0.2c0,0,0,0.1,0,0.1
		c0,0.2,0.2,0.4,0.4,0.4c0,0,0,0,0,0c0.2,0,0.4-0.2,0.4-0.4c0-0.1,0-0.2,0-0.3c0,0,0,0,0,0L13.3,16.8z"/>
</g>
</svg>
