<?xml version="1.0" encoding="utf-8"?>
<!-- Generator: Adobe Illustrator 22.0.0, SVG Export Plug-In . SVG Version: 6.00 Build 0)  -->
<svg version="1.1" id="Calque_1" xmlns="http://www.w3.org/2000/svg" xmlns:xlink="http://www.w3.org/1999/xlink" x="0px" y="0px"
	 viewBox="0 0 24 24" style="enable-background:new 0 0 24 24;" xml:space="preserve">
<g>
	<path d="M17.5,8.5c1.1,0,2-0.9,2-2s-0.9-2-2-2s-2,0.9-2,2S16.4,8.5,17.5,8.5z"/>
	<path d="M22.1,7.5c-0.4-0.4-1-0.4-1.4,0l-2,2h-2.3l-2-2c-0.4-0.4-1-0.4-1.4,0c-0.4,0.4-0.4,1,0,1.4l2,2v3.6v1v3c0,0.6,0.5,1,1,1
		c0.6,0,1-0.5,1-1v-3h1v3c0,0.6,0.5,1,1,1c0.6,0,1-0.5,1-1v-3v-1V11l2.1-2.1C22.5,8.5,22.5,7.9,22.1,7.5z"/>
	<path d="M4.4,6.5c0,1.1,0.9,2,2,2c1.1,0,2-0.9,2-2c0-0.4-0.1-0.7-0.3-1H10c0-0.6-0.5-1-1-1c-0.5,0-0.8,0.3-1,0.7
		C7.6,4.7,7.1,4.5,6.4,4.5c-0.6,0-1.2,0.3-1.6,0.7c-0.1-0.4-0.5-0.7-1-0.7c-0.6,0-1,0.5-1,1h1.8C4.5,5.8,4.4,6.1,4.4,6.5z"/>
	<path d="M9.6,7.5l-2,2H5.4l-2-2c-0.4-0.4-1-0.4-1.4,0c-0.4,0.4-0.4,1,0,1.4l1.8,1.8l-0.8,5.8h1v2c0,0.6,0.5,1,1,1s1-0.5,1-1v-2h1v2
		c0,0.6,0.5,1,1,1s1-0.5,1-1v-2h1l-0.8-5.7L11,8.9c0.4-0.4,0.4-1,0-1.4C10.6,7.1,10,7.1,9.6,7.5z"/>
</g>
</svg>
