<?xml version="1.0" encoding="utf-8"?>
<!-- Generator: Adobe Illustrator 22.0.0, SVG Export Plug-In . SVG Version: 6.00 Build 0)  -->
<svg version="1.1" id="Calque_1" xmlns="http://www.w3.org/2000/svg" xmlns:xlink="http://www.w3.org/1999/xlink" x="0px" y="0px"
	 viewBox="0 0 24 24" style="enable-background:new 0 0 24 24;" xml:space="preserve">
<g>
	<path d="M11.9,7h8.3c-2.6-4.2-8-5.8-12.5-3.6C6.6,4,5.5,4.8,4.7,5.8l2.6,4.5c0.5-1.4,1.7-2.5,3.2-3C11,7.1,11.4,7,11.9,7z"/>
	<path d="M8.8,15.8L8.8,15.8c-0.5-0.4-1-1-1.3-1.6L3.6,7.4c-2.3,4.3-1,9.8,3.1,12.5c1,0.7,2.1,1.1,3.3,1.4l2.7-4.4
		C11.3,17.1,9.9,16.7,8.8,15.8z"/>
	<path d="M15.8,8.8c0.7,0.9,1.2,2,1.1,3.2c0,0.9-0.2,1.8-0.7,2.5l-1.3,2.1l-2.9,4.9c2.3,0,4.4-0.8,6.2-2.3c1.9-1.7,3.1-4,3.3-6.6
		c0.1-1.3-0.1-2.6-0.5-3.9H15.8z"/>
	<path d="M8.8,12c0,1.7,1.4,3.1,3.1,3.1c1.7,0,3.1-1.4,3.1-3.1c0-1.7-1.4-3.1-3.1-3.1C10.2,8.9,8.8,10.3,8.8,12z"/>
</g>
</svg>
