<?xml version="1.0" encoding="utf-8"?>
<!-- Generator: Adobe Illustrator 22.0.1, SVG Export Plug-In . SVG Version: 6.00 Build 0)  -->
<svg version="1.1" id="Calque_1" xmlns="http://www.w3.org/2000/svg" xmlns:xlink="http://www.w3.org/1999/xlink" x="0px" y="0px"
	 viewBox="0 0 24 24" style="enable-background:new 0 0 24 24;" xml:space="preserve">
<path d="M19,15c0,0-2,2.2-2,3.5c0,1.1,0.9,2,2,2s2-0.9,2-2C21,17.2,19,15,19,15z M5.2,13.5L10,8.7l4.8,4.8H5.2z M16.6,12.4l-9-8.9
	L6.2,4.9l2.4,2.4l-5.2,5.1c-0.6,0.6-0.6,1.5,0,2.1L8.9,20c0.3,0.4,0.7,0.5,1.1,0.5s0.8-0.1,1.1-0.4l5.5-5.5
	C17.1,14,17.1,13,16.6,12.4z"/>
</svg>
