<?xml version="1.0" encoding="utf-8"?>
<!-- Generator: Adobe Illustrator 22.0.0, SVG Export Plug-In . SVG Version: 6.00 Build 0)  -->
<svg version="1.1" id="Calque_1" xmlns="http://www.w3.org/2000/svg" xmlns:xlink="http://www.w3.org/1999/xlink" x="0px" y="0px"
	 viewBox="0 0 24 24" style="enable-background:new 0 0 24 24;" xml:space="preserve">
<g>
	<path d="M19.9,15.4c0.3-0.3,0.3-0.7,0-1s-0.7-0.3-1,0c-1.5,1.5-3.5,2.3-5.6,2.3c-2.1,0-4.1-0.8-5.6-2.3c-3.1-3.1-3.1-8.1,0-11.2
		c0.3-0.3,0.3-0.7,0-1s-0.7-0.3-1,0C3,5.8,3,11.7,6.7,15.4c1.6,1.6,3.7,2.5,5.9,2.7v2.6h-3c-0.4,0-0.7,0.3-0.7,0.7S9.2,22,9.6,22
		h7.3c0.4,0,0.7-0.3,0.7-0.7s-0.3-0.7-0.7-0.7h-3v-2.6C16.2,17.9,18.3,17,19.9,15.4z"/>
	<path d="M8.5,13.5c2.6,2.6,6.8,2.6,9.4,0c2.6-2.6,2.6-6.8,0-9.4c-2.6-2.6-6.8-2.6-9.4,0S5.9,10.9,8.5,13.5z M14.8,3.4
		c2.6,1,3.3,3.1,3,3.7s0.1,2.1-0.8,2.1c-0.8,0.1-1.8-0.3-2.9-0.9c-1.1-0.6,1.1-0.6,1.6-2.1c0.5-1.5,0.1-2.1-2.5-1.9l-0.1,0.1
		C13.1,4.6,14.1,3.2,14.8,3.4z M8.8,5.5c0,0-1.5,1.6,0.2,1.6c1.7,0,3.5-0.9,3,0.8c-0.5,1.7-1.4,4.2-0.3,3.9c1.1-0.2,2.8-1.1,3.5-0.9
		c0.6,0.2-0.6,2.9-0.6,2.9s-2.3,0.3-3.1-0.4c-0.9-0.7-1.3-1.3-1.3-2.2c0-1-0.5-0.8-1.2-1.6C8.2,8.9,6.6,6.1,8.8,5.5z"/>
</g>
</svg>
