<?xml version="1.0" encoding="utf-8"?>
<!-- Generator: Adobe Illustrator 22.1.0, SVG Export Plug-In . SVG Version: 6.00 Build 0)  -->
<svg version="1.1" id="Calque_1" xmlns="http://www.w3.org/2000/svg" xmlns:xlink="http://www.w3.org/1999/xlink" x="0px" y="0px"
	 viewBox="0 0 24 24" style="enable-background:new 0 0 24 24;" xml:space="preserve">
<g>
	<path d="M12,2C6.5,2,2,6.5,2,12s4.5,10,10,10s10-4.5,10-10S17.5,2,12,2z M12,20c-4.4,0-8-3.6-8-8s3.6-8,8-8s8,3.6,8,8
		S16.4,20,12,20z"/>
	<path d="M12.8,13l0.3,1.6c0,0-2.7-1.6-2.7-2.7c0-1,2.7-2.7,2.7-2.7l-0.3,1.6H16c-0.1-1.7-1.4-2.7-3-3V5.7h-2v2.2
		C9.1,8.4,8,10,8,12.1c0,2,1.2,3.6,3,4v2.1h2v-2.1c1.6-0.3,2.7-1.4,3-3.2L12.8,13L12.8,13z"/>
</g>
</svg>
