<?xml version="1.0" encoding="utf-8"?>
<!-- Generator: Adobe Illustrator 22.0.0, SVG Export Plug-In . SVG Version: 6.00 Build 0)  -->
<svg version="1.1" id="Calque_1" xmlns="http://www.w3.org/2000/svg" xmlns:xlink="http://www.w3.org/1999/xlink" x="0px" y="0px"
	 viewBox="0 0 24 24" style="enable-background:new 0 0 24 24;" xml:space="preserve">
<g>
	<polygon points="3.2,9.3 16.6,9.3 16.6,8.2 17.9,8.2 17.9,7.2 10.2,4.1 2.1,7.2 2.1,8.2 3.2,8.2 	"/>
	<rect x="4.3" y="9.8" width="1.8" height="6.3"/>
	<rect x="7.5" y="9.8" width="1.8" height="6.3"/>
	<path d="M12.1,12.6c-0.4,0-0.8,0.5-0.8,1.1c0,0.6,0.3,1.1,0.8,1.1c0.4,0,0.8-0.5,0.8-1.1C12.8,13.1,12.5,12.6,12.1,12.6z"/>
	<rect x="13.1" y="12.6" width="1.5" height="0.5"/>
	<rect x="13.1" y="13.4" width="1.5" height="0.6"/>
	<rect x="13.1" y="14.2" width="1.5" height="0.6"/>
	<path d="M22,14.8c0-1.4-1.2-2.6-2.6-2.6c0,0,0,0-0.1,0V9.8h-7.7v1.5H10l0,4.7l4.6,0c-0.2,0.4-0.3,0.8-0.3,1.3
		c0,1.4,1.2,2.6,2.6,2.6c0.7,0,1.4-0.3,1.8-0.7l0,0l2.6-2.6l0,0C21.7,16.1,22,15.5,22,14.8z M12.5,10.7h6v1.7
		c-0.3,0.1-0.5,0.2-0.7,0.4v-1.4l-5.3,0V10.7z M10.9,15.2v-2.9h6v1.4l-0.4,0.4c0-0.1,0.1-0.3,0.1-0.4c0-0.6-0.3-1.1-0.8-1.1
		c-0.4,0-0.8,0.5-0.8,1.1c0,0.6,0.3,1.1,0.8,1.1c0,0,0,0,0,0l-0.4,0.4H10.9z M16.9,19c-0.9,0-1.7-0.8-1.7-1.7c0-0.4,0.2-0.8,0.4-1.1
		c0.1,1.3,1.1,2.3,2.4,2.4C17.7,18.8,17.3,19,16.9,19z M18.6,17.7c-0.1,0-0.3,0-0.4,0c-0.9,0-1.7-0.8-1.7-1.7c0,0,0,0,0,0
		c0-0.1,0-0.3,0-0.4c0-0.2,0.1-0.3,0.2-0.5c0-0.1,0.1-0.1,0.1-0.2c0,0.1,0,0.1,0,0.2c0,0.1,0.1,0.3,0.1,0.4c0.1,0.2,0.1,0.3,0.2,0.5
		c0.3,0.6,0.9,1,1.5,1.2c0.2,0.1,0.4,0.1,0.6,0.1C19,17.5,18.8,17.6,18.6,17.7z M20.8,15.8c-0.2,0.3-0.6,0.5-0.9,0.6
		c-0.1,0-0.3,0.1-0.4,0.1c0,0,0,0,0,0c-0.8,0-1.4-0.5-1.6-1.2c0-0.2-0.1-0.3-0.1-0.5c0,0,0,0,0,0c0-0.1,0-0.2,0-0.3
		c0-0.1,0-0.1,0-0.2c0,0,0,0,0-0.1c0.1-0.2,0.2-0.5,0.4-0.7c0.1-0.1,0.2-0.2,0.2-0.2c0,0,0,0,0.1-0.1c0.3-0.2,0.6-0.3,0.9-0.3
		c0,0,0,0,0.1,0c0.9,0,1.7,0.8,1.7,1.7C21.1,15.2,21,15.5,20.8,15.8z"/>
	<path d="M19.6,14.5c-0.1,0-0.2-0.1-0.3-0.1v-0.3c0,0,0.1,0,0.2,0c0.3,0,0.4,0.1,0.5,0.1l0-0.1l0.1-0.4c-0.1-0.1-0.3-0.1-0.5-0.1
		v-0.3h-0.3h-0.1v0.2v0.1c-0.4,0.1-0.6,0.3-0.6,0.6c0,0,0,0,0,0c0,0.1,0,0.1,0,0.2c0.1,0.2,0.3,0.4,0.6,0.5c0.3,0.1,0.4,0.1,0.4,0.3
		c0,0.1-0.1,0.2-0.3,0.2c-0.2,0-0.5-0.1-0.6-0.2l0,0.1l-0.1,0.4c0.1,0.1,0.3,0.1,0.5,0.1c0,0,0.1,0,0.1,0v0.2v0.2h0.1h0.3v-0.4
		c0.1,0,0.2-0.1,0.3-0.1c0.2-0.1,0.4-0.3,0.4-0.6C20.2,14.9,20.1,14.7,19.6,14.5z"/>
	<path d="M13.6,16.6H3.3v1.1H2v1h11.9C13.4,17.8,13.5,17,13.6,16.6z"/>
</g>
</svg>
