<?xml version="1.0" encoding="utf-8"?>
<!-- Generator: Adobe Illustrator 22.0.0, SVG Export Plug-In . SVG Version: 6.00 Build 0)  -->
<svg version="1.1" id="Calque_1" xmlns="http://www.w3.org/2000/svg" xmlns:xlink="http://www.w3.org/1999/xlink" x="0px" y="0px"
	 viewBox="0 0 24 24" style="enable-background:new 0 0 24 24;" xml:space="preserve">
<g>
	<path d="M3.3,7.3c2.7,1.3,5.4,2.5,8.1,3.8c0.4,0.2,0.8,0.2,1.2,0c2.7-1.2,5.4-2.5,8-3.8C20.8,7.2,21,7.2,21,7
		c0-0.2-0.2-0.2-0.3-0.3c-2.7-1.2-5.4-2.5-8.1-3.8c-0.3-0.1-0.9-0.1-1.2,0C8.7,4.2,6,5.4,3.3,6.7C3.2,6.8,3,6.8,3,7
		C3,7.2,3.2,7.2,3.3,7.3z M12,5.4c1.7,0,3.1,0.5,3.1,1.1c0,0.6-1.4,1.1-3.1,1.1S8.9,7.2,8.9,6.6C8.9,5.9,10.3,5.4,12,5.4z"/>
	<path d="M3.3,12.3c2.7,1.2,5.3,2.5,8,3.7c0.2,0.1,0.5,0.2,0.6,0.2c0.1,0,0.4-0.1,0.6-0.2c2.7-1.3,5.4-2.5,8.1-3.8
		c0.1,0,0.1-0.1,0.2-0.1c0.1-0.1,0.1-0.3,0-0.4c-0.1,0-0.1-0.1-0.2-0.1c-0.5-0.2-0.9-0.4-1.4-0.7c-0.4-0.2-0.8-0.2-1.3,0
		c-1.8,0.8-3.6,1.7-5.4,2.5c-0.4,0.2-0.8,0.2-1.3,0C9.6,12.7,7.8,11.9,6,11c-0.4-0.2-0.9-0.2-1.3,0c-0.5,0.2-0.9,0.4-1.4,0.6
		C3.2,11.7,3,11.8,3,12C3,12.2,3.2,12.2,3.3,12.3z"/>
	<path d="M20.9,16.8c-0.1,0-0.1-0.1-0.2-0.1c-0.5-0.2-0.9-0.4-1.4-0.7c-0.4-0.2-0.9-0.2-1.3,0c-1.8,0.8-3.6,1.7-5.4,2.5
		c-0.4,0.2-0.9,0.2-1.3,0C9.6,17.7,7.8,16.8,6,16c-0.4-0.2-0.9-0.2-1.3,0c-0.4,0.2-0.9,0.4-1.3,0.6C3.2,16.7,3,16.7,3,17
		c0,0.2,0.2,0.3,0.3,0.3c2.7,1.3,5.4,2.5,8,3.8c0.3,0.1,0.4,0.2,0.6,0.2c0.2,0,0.5-0.1,0.7-0.2c2.7-1.2,5.3-2.5,8-3.7
		c0.1,0,0.2-0.1,0.3-0.2C21,17,21,16.9,20.9,16.8z"/>
</g>
</svg>
