<?xml version="1.0" encoding="utf-8"?>
<!-- Generator: Adobe Illustrator 22.0.0, SVG Export Plug-In . SVG Version: 6.00 Build 0)  -->
<svg version="1.1" id="Calque_1" xmlns="http://www.w3.org/2000/svg" xmlns:xlink="http://www.w3.org/1999/xlink" x="0px" y="0px"
	 viewBox="0 0 24 24" style="enable-background:new 0 0 24 24;" xml:space="preserve">
<path d="M16.5,9.9h-1.9V7.1h1.9V9.9z M15.6,10.8c-0.2,0-0.3-0.1-0.3-0.3c0-0.2,0.1-0.3,0.3-0.3c0.2,0,0.3,0.1,0.3,0.3
	C15.9,10.6,15.8,10.8,15.6,10.8z M16.4,6.4h-1.6c-0.3,0-0.5,0.2-0.5,0.5v3.5c0,0.3,0.2,0.5,0.5,0.5h1.6c0.3,0,0.5-0.2,0.5-0.5V7
	C17,6.7,16.7,6.4,16.4,6.4z"/>
<path d="M12.4,13.3H2.7V7.9h9.6V13.3z M12.4,6.8H2.7c-0.6,0-1.1,0.5-1.1,1.1v6.4c0,0.6,0.5,1.1,1.1,1.1h3.8L5.4,17v0.5h4.3V17
	l-1.1-1.6h3.8c0.6,0,1.1-0.5,1.1-1.1V7.9C13.5,7.3,13,6.8,12.4,6.8z"/>
<path d="M20.8,16.8h-5.2v-4.5h5.2V16.8z M21.6,11.6h-6.7c-0.4,0-0.7,0.3-0.7,0.7v4.5c0,0.4,0.3,0.7,0.7,0.7h6.7
	c0.4,0,0.7-0.3,0.7-0.7v-4.5C22.3,11.9,22,11.6,21.6,11.6z"/>
</svg>
