<?xml version="1.0" encoding="utf-8"?>
<!-- Generator: Adobe Illustrator 22.0.0, SVG Export Plug-In . SVG Version: 6.00 Build 0)  -->
<svg version="1.1" id="Calque_1" xmlns="http://www.w3.org/2000/svg" xmlns:xlink="http://www.w3.org/1999/xlink" x="0px" y="0px"
	 viewBox="0 0 24 24" style="enable-background:new 0 0 24 24;" xml:space="preserve">
<g>
	<path d="M19.3,2.7H4.7c-1.1,0-1.9,0.9-1.9,1.9V5h18.6V4.7C21.3,3.6,20.4,2.7,19.3,2.7z"/>
	<path d="M21.3,15.1c0-0.3-0.2-0.5-0.6-0.5c-0.2,0-0.5,0.1-0.8,0.3c-0.4-0.8-1-1.5-1.4-1.7c-0.3-0.1-1.3-0.3-2.2-0.3
		c-0.9,0-1.9,0.2-2.2,0.3c-0.4,0.2-1.1,0.9-1.4,1.7c-0.3-0.2-0.6-0.3-0.8-0.3c-0.1,0-0.3,0-0.4,0.1c-0.1,0.1-0.2,0.3-0.2,0.4
		c0,0.6,0.5,1,0.5,1.1c0,0,0.1,0.1,0.1,0.1c0,0.1-0.1,0.3-0.1,0.4c1.1,0.1,2.6,0.3,2.6,1.1c0,0.2-0.2,0.4-0.4,0.4s-0.4-0.2-0.4-0.4
		c-0.1-0.2-1-0.3-1.9-0.4c0,0.1,0,0.3,0,0.4c0,0.6,0.1,1.6,0.4,2.1v0.6c0,0.4,0.3,0.8,0.8,0.8h0.8c0.4,0,0.8-0.3,0.8-0.8v-0.3
		c0.5,0.1,1.2,0.3,1.9,0.3c0.7,0,1.5-0.1,1.9-0.3v0.3c0,0.4,0.3,0.8,0.8,0.8h0.8c0.4,0,0.8-0.3,0.8-0.8v-0.6
		c0.3-0.5,0.4-1.5,0.4-2.1c0-0.1,0-0.2,0-0.4c-0.9,0-1.8,0.2-1.9,0.4c0,0.2-0.2,0.4-0.4,0.4c-0.2,0-0.4-0.2-0.4-0.4
		c0-0.8,1.4-1.1,2.6-1.1c0-0.1-0.1-0.3-0.1-0.4c0.1,0,0.1,0,0.1-0.1C20.8,16.1,21.3,15.7,21.3,15.1z M13.1,15.6
		c0.3-0.9,1-1.7,1.3-1.8c0.1-0.1,1-0.2,1.8-0.2c0.9,0,1.7,0.2,1.8,0.2c0.3,0.1,1,1,1.3,1.8c0,0,0,0,0,0L13.1,15.6
		C13.1,15.6,13.1,15.6,13.1,15.6z M17,18.2h-1.5c-0.2,0-0.4-0.2-0.4-0.4s0.2-0.4,0.4-0.4H17c0.2,0,0.4,0.2,0.4,0.4
		S17.2,18.2,17,18.2z"/>
	<path d="M2.7,14.7c0,1.1,0.9,1.9,1.9,1.9h5.7c0.2,0,0.4-0.2,0.4-0.4c0-0.1,0-0.2-0.1-0.3c-0.1-0.3-0.2-0.6-0.2-0.9H4.7
		c-0.2,0-0.4-0.2-0.4-0.4c0-1,0.7-1.8,1.6-2L7,12.4l0.1-0.2c-0.3-0.3-0.5-0.7-0.6-1.2c-0.2-0.1-0.4-0.3-0.4-0.6L6,9.8
		c0-0.2,0-0.4,0.2-0.6c0-0.1,0.1-0.1,0.2-0.1c0-0.2,0-0.4,0-0.6c0-0.6,0.2-1.5,1.8-1.6c0.5-0.3,1.1-0.3,1.3-0.3
		c0.8,0,1.3,0.4,1.5,0.7c0.4,0.7,0.2,1.1,0,1.3l-0.1,0.1l0,0.4c0.1,0,0.1,0.1,0.1,0.1C11,9.3,11.1,9.5,11,9.8L11,10.4
		c0,0.2-0.2,0.4-0.4,0.6c-0.1,0.4-0.3,0.9-0.6,1.2l0,0.2l1.2,0.3c0.5,0.1,1,0.5,1.3,0.9c0.4-0.6,0.9-1,1.3-1.2
		c0.5-0.2,1.7-0.4,2.5-0.4c0.9,0,2,0.1,2.5,0.4c0.4,0.2,0.9,0.7,1.3,1.2c0.1,0.1,0.2,0.2,0.4,0.2c0.1,0,0.2,0,0.4,0
		c0.1,0,0.2,0,0.3-0.1c0.1-0.1,0.1-0.2,0.1-0.3V5.8H2.7V14.7z M17.8,7.4h1.5c0.2,0,0.4,0.2,0.4,0.4c0,0.2-0.2,0.4-0.4,0.4h-1.5
		c-0.2,0-0.4-0.2-0.4-0.4C17.4,7.5,17.6,7.4,17.8,7.4z M13.9,7.4h2.3c0.2,0,0.4,0.2,0.4,0.4c0,0.2-0.2,0.4-0.4,0.4h-2.3
		c-0.2,0-0.4-0.2-0.4-0.4C13.5,7.5,13.7,7.4,13.9,7.4z M13.9,9.7h5.4c0.2,0,0.4,0.2,0.4,0.4s-0.2,0.4-0.4,0.4h-5.4
		c-0.2,0-0.4-0.2-0.4-0.4S13.7,9.7,13.9,9.7z"/>
</g>
</svg>
