<?xml version="1.0" encoding="utf-8"?>
<!-- Generator: Adobe Illustrator 22.0.0, SVG Export Plug-In . SVG Version: 6.00 Build 0)  -->
<svg version="1.1" id="Calque_1" xmlns="http://www.w3.org/2000/svg" xmlns:xlink="http://www.w3.org/1999/xlink" x="0px" y="0px"
	 viewBox="0 0 24 24" style="enable-background:new 0 0 24 24;" xml:space="preserve">
<g>
	<g>
		<path d="M16.9,19.7c0,0.4,0.3,0.7,0.7,0.7c0.4,0,0.7-0.3,0.7-0.7v-3.5c-0.5,0-1-0.1-1.4-0.1V19.7z"/>
		<path d="M18.5,19.7c0,0.4,0.3,0.7,0.7,0.7c0.4,0,0.7-0.3,0.7-0.7v-3.6c-0.4,0.1-0.9,0.1-1.4,0.1V19.7z"/>
		<path d="M2.1,14c0.3,0,0.6-0.3,0.5-0.6c0-0.5,0-0.9,0-1.3c0-1.7,0.2-2.7,0.5-3.2v10.6c0,0.5,0.4,0.9,0.9,0.9
			c0.5,0,0.9-0.4,0.9-0.9v-6.4h0.3v6.4c0,0.5,0.4,0.9,0.9,0.9c0.5,0,0.9-0.4,0.9-0.9V8.9C6.9,9,7,9.1,7,9.2c0.2,0.6,0.4,1.5,0.4,2.9
			c0,0.4,0,0.8,0,1.3c0,0.1,0,0.2,0.1,0.3c0,0.2,0.2,0.3,0.4,0.4c0.2,0,0.3,0.1,0.5,0.1c0,0,0,0,0,0c0.2,0,0.5-0.1,0.7-0.2
			c0.4-0.2,0.6-0.5,0.8-0.8c0.1-0.1,0.2-0.3,0.2-0.4v1.8h3.2v-1.9c0.1,0.1,0.1,0.2,0.2,0.4c0.1,0.2,0.3,0.4,0.5,0.6
			c0.2,0.2,0.5,0.3,0.8,0.4c0,0,0.1,0,0.1,0c0.2,0,0.4-0.1,0.5-0.4c0,0,0-0.1,0-0.1c0,0,0-0.1,0-0.1c0.3-2.2,0.9-3.4,1.4-4l-1.2,6
			c0,0,0,0,0,0c0.2,0.1,1.3,0.6,3,0.6s2.8-0.5,3-0.6c0,0,0,0,0,0l-1.2-6c0,0,0,0,0,0c0.5,0.6,1,1.8,1.3,4c0,0.2,0.2,0.4,0.5,0.4
			c0,0,0,0,0.1,0c0.3,0,0.4-0.3,0.4-0.5c-0.3-2.5-1-3.8-1.6-4.6c-0.6-0.7-1.2-0.9-1.3-0.9c-0.1,0-0.6-0.1-1.1-0.1
			c-0.5,0-1,0.1-1.1,0.1c-0.2,0-0.7,0.2-1.3,0.9c-0.6,0.7-1.2,1.9-1.6,4c0,0,0,0-0.1-0.1c-0.2-0.3-0.4-0.7-0.6-1.2
			c-0.1-0.2-0.2-0.4-0.4-0.6c-0.1-0.1-0.2-0.2-0.3-0.3c-0.1,0-0.2-0.1-0.3-0.1c0,0-0.1,0-0.1,0c0,0-0.1,0-0.1,0c0,0,0,0-0.1,0h-2.1
			c0,0,0,0-0.1,0c0,0,0,0-0.1,0h0c-0.1,0-0.1,0-0.2,0c-0.2,0-0.3,0.1-0.4,0.2c-0.2,0.2-0.4,0.5-0.5,0.8c-0.2,0.4-0.3,0.9-0.5,1.2
			C8.7,12.9,8.6,13,8.5,13c0,0,0,0,0,0c0-0.4,0-0.7,0-1c0-2.1-0.3-3.3-0.8-4C7.5,7.7,7.2,7.5,7,7.3C6.7,7.2,6.5,7.2,6.4,7.2
			c0,0,0,0,0,0H3.6c0,0,0,0,0,0c-0.1,0-0.3,0-0.6,0.2C2.6,7.5,2.2,7.9,1.9,8.7c-0.3,0.7-0.5,1.8-0.5,3.4c0,0.4,0,0.9,0,1.4
			C1.5,13.7,1.8,14,2.1,14C2.1,14,2.1,14,2.1,14z"/>
		<circle cx="5" cy="5.2" r="1.6"/>
		<ellipse transform="matrix(0.2249 -0.9744 0.9744 0.2249 8.6302 22.4581)" cx="18.4" cy="5.8" rx="1.5" ry="1.5"/>
		<path d="M9.9,14.8v4.8c0,0.4,0.3,0.7,0.7,0.7c0.4,0,0.7-0.3,0.7-0.7v-3.5h0.3v3.5c0,0.4,0.3,0.7,0.7,0.7c0.4,0,0.7-0.3,0.7-0.7
			v-4.8L9.9,14.8L9.9,14.8z"/>
		<ellipse cx="11.5" cy="8.6" rx="1.5" ry="1.5"/>
	</g>
</g>
</svg>
