<?xml version="1.0" encoding="utf-8"?>
<!-- Generator: Adobe Illustrator 22.0.0, SVG Export Plug-In . SVG Version: 6.00 Build 0)  -->
<svg version="1.1" id="Calque_1" xmlns="http://www.w3.org/2000/svg" xmlns:xlink="http://www.w3.org/1999/xlink" x="0px" y="0px"
	 viewBox="0 0 24 24" style="enable-background:new 0 0 24 24;" xml:space="preserve">
<g>
	<path d="M14.2,17.9c-1.5,1.9-3.2,2.8-4.1,2.8c-0.8,0-1.1-0.7-0.6-2.9c0.5-1.9,1.2-4.8,1.7-6.9c0.1-0.6,0.1-0.8-0.1-0.8
		c-0.3,0-1.1,0.5-1.8,1.2L9,10.4c1.4-1.5,3.3-2.6,4.2-2.6c0.7,0,0.8,0.9,0.3,3.1c-0.5,1.9-1.2,4.7-1.6,6.6c-0.2,0.7-0.2,1.1,0,1.1
		c0.3,0,1-0.4,2-1.4L14.2,17.9z M15,4.7c0,0.9-0.7,1.7-1.6,1.7c-0.7,0-1.3-0.5-1.3-1.3c0-0.8,0.6-1.7,1.7-1.7C14.6,3.3,15,4,15,4.7z
		"/>
</g>
</svg>
