<?xml version="1.0" encoding="utf-8"?>
<!-- Generator: Adobe Illustrator 23.0.1, SVG Export Plug-In . SVG Version: 6.00 Build 0)  -->
<svg version="1.1" id="Calque_1" xmlns="http://www.w3.org/2000/svg" xmlns:xlink="http://www.w3.org/1999/xlink" x="0px" y="0px"
	 viewBox="0 0 24 24" style="enable-background:new 0 0 24 24;" xml:space="preserve">
<g>
	<path d="M3.4,14.2c0,4.8,3.8,8.6,8.6,8.6s8.6-3.9,8.6-8.6h-2.2c0,3.5-2.9,6.4-6.4,6.4s-6.4-2.9-6.4-6.4c0-3.2,2.3-5.8,5.3-6.3
		c0.1,0,0.1,0,0.2,0c0.3-0.1,2.3-0.3,4.5,0.6c2.5,1,5,2.4,5,2.4L12,1.3v4.3C7.3,5.6,3.4,9.4,3.4,14.2z"/>
</g>
<g>
	<path d="M8.1,16.7v-0.9h1.5v-3.6H9.4l-1.1,1.4L7.6,13l1.3-1.7h1.8v4.5h1.1v0.9H8.1z"/>
	<path d="M14.3,16.8c-0.7,0-1.2-0.2-1.6-0.7c-0.3-0.5-0.5-1.2-0.5-2.1s0.2-1.6,0.5-2.1c0.3-0.5,0.9-0.7,1.6-0.7
		c0.7,0,1.2,0.2,1.6,0.7c0.3,0.5,0.5,1.2,0.5,2.1s-0.2,1.6-0.5,2.1C15.5,16.5,15,16.8,14.3,16.8z M14.3,15.8c0.3,0,0.5-0.1,0.6-0.3
		c0.1-0.2,0.2-0.5,0.2-1v-1c0-0.4-0.1-0.7-0.2-1c-0.1-0.2-0.3-0.3-0.6-0.3c-0.3,0-0.5,0.1-0.6,0.3c-0.1,0.2-0.2,0.5-0.2,1v1
		c0,0.4,0.1,0.7,0.2,1C13.8,15.7,14,15.8,14.3,15.8z"/>
</g>
</svg>
