<?xml version="1.0" encoding="utf-8"?>
<!-- Generator: Adobe Illustrator 22.0.0, SVG Export Plug-In . SVG Version: 6.00 Build 0)  -->
<svg version="1.1" id="Calque_1" xmlns="http://www.w3.org/2000/svg" xmlns:xlink="http://www.w3.org/1999/xlink" x="0px" y="0px"
	 viewBox="0 0 24 24" style="enable-background:new 0 0 24 24;" xml:space="preserve">
<path d="M12,2C6.5,2,2,6.5,2,12s4.5,10,10,10s10-4.5,10-10S17.5,2,12,2z M16,9.2c-0.8-1-1.9-1.6-3.3-1.6c-1.6,0-3.1,1-3.7,2.3h6.7
	l-0.5,1.2H8.6l0,0.6l0,0.6h6l-0.5,1.2H9c0.7,1.4,2.1,2.3,3.7,2.3c1.3,0,2.5-0.6,3.2-1.6v1.6c-0.9,0.7-2,1.1-3.2,1.1
	c-2.3,0-4.3-1.5-5-3.5H5.7l0.6-1.2h1.2l0-0.6l0-0.6H5.7l0.6-1.2h1.5c0.7-2.1,2.7-3.5,5-3.5c1.5,0,2.8,0.6,3.8,1.6L16,9.2z"/>
</svg>
