<?xml version="1.0" encoding="utf-8"?>
<!-- Generator: Adobe Illustrator 22.0.0, SVG Export Plug-In . SVG Version: 6.00 Build 0)  -->
<svg version="1.1" id="Calque_1" xmlns="http://www.w3.org/2000/svg" xmlns:xlink="http://www.w3.org/1999/xlink" x="0px" y="0px"
	 viewBox="0 0 24 24" style="enable-background:new 0 0 24 24;" xml:space="preserve">
<path d="M17.9,17.4c-0.3-0.8-1-1.4-1.9-1.4h-1v-3c0-0.6-0.4-1-1-1H8v-2h2c0.6,0,1-0.4,1-1V7h2c1.1,0,2-0.9,2-2V4.6
	c2.9,1.2,5,4.1,5,7.4C20,14.1,19.2,16,17.9,17.4z M11,19.9c-3.9-0.5-7-3.9-7-7.9c0-0.6,0.1-1.2,0.2-1.8L9,15v1c0,1.1,0.9,2,2,2V19.9
	z M12,2C6.5,2,2,6.5,2,12c0,5.5,4.5,10,10,10c5.5,0,10-4.5,10-10C22,6.5,17.5,2,12,2z"/>
</svg>
