<?xml version="1.0" encoding="utf-8"?>
<!-- Generator: Adobe Illustrator 22.0.0, SVG Export Plug-In . SVG Version: 6.00 Build 0)  -->
<svg version="1.1" id="Calque_1" xmlns="http://www.w3.org/2000/svg" xmlns:xlink="http://www.w3.org/1999/xlink" x="0px" y="0px"
	 viewBox="0 0 24 24" style="enable-background:new 0 0 24 24;" xml:space="preserve">
<g>
	<path d="M18.6,17c-0.2-0.2-0.6-0.2-0.9-0.1l-2.3,1.2c0.2,0.2,0.2,0.5,0.2,0.7C16.4,18.3,17.5,17.6,18.6,17z"/>
	<path d="M16.4,16.6l-2.2,0.9h0.3c0.2,0.1,0.4,0.2,0.6,0.2l2-1C16.9,16.5,16.7,16.5,16.4,16.6z"/>
	<path d="M20.1,17.4c-0.2-0.3-0.6-0.3-0.9-0.1c-1.2,0.8-3.7,2.2-3.7,2.2c-0.3,0.2-0.7,0.3-1,0.3h-2.8c-0.1,0-0.2-0.1-0.2-0.2
		c0-0.2,0.1-0.2,0.2-0.2l2.8-0.1c0.3,0,0.6-0.3,0.6-0.6c0-0.4-0.2-0.7-0.6-0.7l-1.7-0.2c-0.7,0-1.4-0.2-2.1-0.4
		c-2.2-0.8-3.4-0.4-4.1-0.2c-0.2-0.2-0.4-0.4-0.7-0.4L4.5,17c-0.5,0-0.8,0.4-0.8,0.9l0.2,3.3c0.1,0.5,0.5,0.8,1,0.8h1.4
		c0.2,0,0.5-0.2,0.6-0.4c0.2,0.1,0.2,0.2,0.4,0.2l6.3,0.4c0.1,0,0.2,0,0.2,0c0.9,0,1.7-0.2,2.3-0.7l4-2.8l0.1-0.1
		C20.4,18.2,20.4,17.7,20.1,17.4z M5.3,21.2c-0.3-0.1-0.5-0.3-0.5-0.6c0-0.3,0.2-0.6,0.6-0.5c0.3,0.1,0.5,0.3,0.5,0.6
		S5.6,21.2,5.3,21.2z"/>
	<polygon points="6.4,15.5 10.4,15.5 10.4,10.7 13.6,10.7 13.6,15.5 17.6,15.5 17.6,9.1 20,9.1 12,1.9 4,9.1 6.4,9.1 	"/>
</g>
</svg>
