<?xml version="1.0" encoding="utf-8"?>
<!-- Generator: Adobe Illustrator 22.0.0, SVG Export Plug-In . SVG Version: 6.00 Build 0)  -->
<svg version="1.1" id="Calque_1" xmlns="http://www.w3.org/2000/svg" xmlns:xlink="http://www.w3.org/1999/xlink" x="0px" y="0px"
	 viewBox="0 0 24 24" style="enable-background:new 0 0 24 24;" xml:space="preserve">
<path d="M12.6,5.4c0,0.4-1,0.7-2.3,0.7S8.1,5.8,8.1,5.4V4.7c0-0.4,1-0.7,2.3-0.7s2.3,0.3,2.3,0.7L12.6,5.4z M12.6,6.4
	C12.6,6.4,12.6,6.4,12.6,6.4c-0.6,0.2-1.5,0.3-2.3,0.3c-0.8,0-1.7-0.1-2.3-0.4c0,0,0,0.1,0,0.1v0.6c0,0.4,1,0.7,2.3,0.7
	s2.3-0.3,2.3-0.7L12.6,6.4z M12.6,8.1C12.6,8.1,12.6,8.1,12.6,8.1c-0.6,0.2-1.5,0.3-2.3,0.3C9.5,8.5,8.6,8.3,8.1,8c0,0,0,0.1,0,0.1
	v0.6c0,0.4,1,0.7,2.3,0.7s2.3-0.3,2.3-0.7L12.6,8.1z M15.6,9.5c1.3,0,2.3-0.3,2.3-0.7V8.1c0-0.4-1-0.7-2.3-0.7s-2.3,0.3-2.3,0.7v0.6
	C13.3,9.2,14.3,9.5,15.6,9.5z M13.3,10.4c0,0.4,1,0.7,2.3,0.7s2.3-0.3,2.3-0.7V9.8c0,0,0-0.1,0-0.1c-0.6,0.3-1.4,0.4-2.3,0.4
	c-0.8,0-1.7-0.1-2.3-0.4c0,0,0,0.1,0,0.1V10.4z M13.3,12.1c0,0.4,1,0.7,2.3,0.7s2.3-0.3,2.3-0.7v-0.6c0,0,0-0.1,0-0.1
	c-0.6,0.3-1.4,0.4-2.3,0.4c-0.8,0-1.7-0.1-2.3-0.4c0,0,0,0.1,0,0.1V12.1z M12.6,9.8C12.6,9.8,12.6,9.8,12.6,9.8
	c-0.6,0.2-1.5,0.3-2.3,0.3c-0.8,0-1.7-0.1-2.3-0.4c0,0,0,0.1,0,0.1v0.6c0,0.4,1,0.7,2.3,0.7s2.3-0.3,2.3-0.7L12.6,9.8z M8.1,11.4
	C8.1,11.5,8.1,11.5,8.1,11.4l0,0.7c0,0.4,1,0.7,2.3,0.7s2.3-0.3,2.3-0.7v-0.6c0,0,0-0.1,0-0.1c-0.6,0.3-1.4,0.4-2.3,0.4
	C9.5,11.9,8.6,11.7,8.1,11.4z M22.1,14.2c0.4,0.4,0.4,1,0,1.4c0,0-0.1,0.1-0.1,0.1l-5,3.5c-0.8,0.6-1.8,0.9-2.9,0.9
	c-0.1,0-0.2,0-0.3,0l-7.8-0.5h0c-0.2,0-0.3-0.1-0.5-0.2c-0.2,0.3-0.5,0.5-0.8,0.5L3,19.9c-0.6,0-1.1-0.4-1.2-1l-0.2-4.1
	c0-0.6,0.4-1.1,1-1.1c0,0,0,0,0,0l1.8-0.1c0.4,0,0.7,0.2,0.9,0.5c0.8-0.3,2.4-0.8,5.1,0.2c0.8,0.3,1.7,0.5,2.6,0.5l2.1,0.2
	c0.5,0,0.8,0.4,0.8,0.9c0,0.4-0.4,0.8-0.8,0.8l-3.5,0.1c-0.1,0-0.2,0.1-0.2,0.3c0,0.1,0.1,0.2,0.2,0.2l0,0l3.5,0
	c0.4,0,0.9-0.1,1.3-0.4c0,0,3.1-1.8,4.6-2.8C21.3,13.8,21.8,13.8,22.1,14.2L22.1,14.2z M4.3,18.4c0-0.3-0.2-0.6-0.6-0.7
	S3,17.9,3,18.3c0,0.3,0.2,0.6,0.6,0.7c0,0,0,0,0,0C4,19,4.3,18.7,4.3,18.4z M20.2,13.7c-0.3-0.3-0.7-0.3-1.1-0.1l-2.9,1.5
	c0.2,0.3,0.2,0.6,0.2,0.9C17.5,15.4,18.9,14.5,20.2,13.7L20.2,13.7z M15.9,14.6l2.5-1.3c-0.3-0.2-0.6-0.2-0.9-0.1l-2.7,1.1l0.4,0
	C15.4,14.4,15.7,14.5,15.9,14.6z"/>
</svg>
