<?xml version="1.0" encoding="utf-8"?>
<!-- Generator: Adobe Illustrator 22.1.0, SVG Export Plug-In . SVG Version: 6.00 Build 0)  -->
<svg version="1.1" id="Calque_1" xmlns="http://www.w3.org/2000/svg" xmlns:xlink="http://www.w3.org/1999/xlink" x="0px" y="0px"
	 viewBox="0 0 24 24" style="enable-background:new 0 0 24 24;" xml:space="preserve">
<path d="M18.6,6.6c-1.4,0-2.8,0.6-3.8,1.5l-1.5,1.3l-0.5,0.4c-0.1,0.2-0.2,0.3-0.2,0.6c0,0.6,0.5,1.1,1.1,1.1c0.2,0,0.3,0,0.4-0.1
	l0.4-0.4l1.6-1.4c0.6-0.6,1.5-1,2.4-1c1.9,0,3.4,1.5,3.4,3.4s-1.5,3.4-3.4,3.4c-0.9,0-1.8-0.3-2.4-1L13.5,12L12,10.7L9.2,8.2
	c-1-1-2.4-1.6-3.8-1.6C2.4,6.6,0,9,0,12s2.4,5.4,5.4,5.4c1.4,0,2.8-0.6,3.8-1.5l1.5-1.4l0.4-0.4c0.1-0.2,0.2-0.4,0.2-0.6
	c0-0.6-0.5-1-1-1c-0.2,0-0.3,0-0.5,0.1l-0.4,0.4l-1.6,1.4c-0.6,0.6-1.5,1-2.4,1C3.5,15.4,2,13.9,2,12s1.5-3.4,3.4-3.4
	c0.9,0,1.8,0.3,2.4,1l2.7,2.3l1.5,1.3l2.8,2.5c1,1,2.4,1.6,3.8,1.6c3,0,5.4-2.4,5.4-5.4C24,9,21.6,6.6,18.6,6.6z"/>
</svg>
