<?xml version="1.0" encoding="utf-8"?>
<!-- Generator: Adobe Illustrator 22.0.0, SVG Export Plug-In . SVG Version: 6.00 Build 0)  -->
<svg version="1.1" id="Calque_1" xmlns="http://www.w3.org/2000/svg" xmlns:xlink="http://www.w3.org/1999/xlink" x="0px" y="0px"
	 viewBox="0 0 24 24" style="enable-background:new 0 0 24 24;" xml:space="preserve">
<path d="M7.3,5h14v2h-14V5z M7.3,13v-2h14v2H7.3z M4.3,4.5c0.8,0,1.5,0.7,1.5,1.5c0,0.8-0.7,1.5-1.5,1.5S2.8,6.8,2.8,6
	C2.8,5.2,3.4,4.5,4.3,4.5z M4.3,10.5c0.8,0,1.5,0.7,1.5,1.5s-0.7,1.5-1.5,1.5S2.8,12.8,2.8,12S3.4,10.5,4.3,10.5z M7.3,19v-2h14v2
	H7.3z M4.3,16.5c0.8,0,1.5,0.7,1.5,1.5s-0.7,1.5-1.5,1.5S2.8,18.8,2.8,18S3.4,16.5,4.3,16.5z"/>
</svg>
