<?xml version="1.0" encoding="utf-8"?>
<!-- Generator: Adobe Illustrator 22.0.0, SVG Export Plug-In . SVG Version: 6.00 Build 0)  -->
<svg version="1.1" id="Calque_1" xmlns="http://www.w3.org/2000/svg" xmlns:xlink="http://www.w3.org/1999/xlink" x="0px" y="0px"
	 viewBox="0 0 24 24" style="enable-background:new 0 0 24 24;" xml:space="preserve">
<g transform="translate(0,-952.36218)">
	<path d="M12,954.5c-2.4,0-4.4,1.9-4.4,4.4c0,0.6,0.2,1.4,0.4,1.9l4.1,8.5l4.1-8.5c0.2-0.5,0.4-1.4,0.4-1.9
		C16.4,956.4,14.4,954.5,12,954.5z M12,957c1.1,0,2,0.9,2,2s-0.9,2-2,2c-1.1,0-2-0.9-2-2S10.9,957,12,957z M3.8,964.4l3.8,4.8l2.3-2
		l-1.4-2.8H3.8z M15.5,964.4l-1.1,2.5h6.8v-2.5H15.5z M2.9,964.8v9.4h7.5L2.9,964.8z M13.8,967.8l-0.9,2c-0.2,0.3-0.5,0.6-0.9,0.6
		s-0.7-0.2-0.9-0.6l-0.8-1.6l-2.2,1.8l3.4,4.3H19L13.8,967.8L13.8,967.8z M15.1,967.8l2,2.5h4v-2.5H15.1z M17.9,971.3l2.4,3h0.9v-3
		H17.9z"/>
</g>
</svg>
