<?xml version="1.0" encoding="utf-8"?>
<!-- Generator: Adobe Illustrator 22.0.0, SVG Export Plug-In . SVG Version: 6.00 Build 0)  -->
<svg version="1.1" id="Calque_1" xmlns="http://www.w3.org/2000/svg" xmlns:xlink="http://www.w3.org/1999/xlink" x="0px" y="0px"
	 viewBox="0 0 24 24" style="enable-background:new 0 0 24 24;" xml:space="preserve">
<path d="M16.1,8.2h-1.5V3.3c0-0.8-0.6-1.4-1.4-1.4h-2.5c-0.8,0-1.3,0.6-1.3,1.4v4.9H7.9C7.4,8.2,7,8.6,7,9.1v11.2
	c0,0.5,0.4,0.9,0.9,0.9h0.7c0,0,0,0.1,0,0.1c0,0.4,0.4,0.8,0.8,0.8h0.5c0.4,0,0.8-0.4,0.8-0.8c0,0,0-0.1,0-0.1h2.7c0,0,0,0.1,0,0.1
	c0,0.4,0.4,0.8,0.8,0.8h0.5c0.4,0,0.8-0.4,0.8-0.8c0,0,0-0.1,0-0.1h0.7c0.5,0,0.9-0.4,0.9-0.9V9.1C17,8.6,16.6,8.2,16.1,8.2z
	 M10.3,3.3c0-0.3,0.2-0.5,0.5-0.5h2.5c0.3,0,0.5,0.2,0.5,0.5v4.9h-3.5L10.3,3.3L10.3,3.3z M12,18.5l-1.3,0.3c-0.2,0-0.3-0.1-0.4-0.3
	L10,17.2c0-0.2,0.1-0.3,0.3-0.4l1.3-0.3c0.2,0,0.3,0.1,0.4,0.3l0.3,1.3C12.3,18.3,12.2,18.5,12,18.5z M9.4,12.9L9,11.4l3.1-0.8
	l0.3,1.4L9.4,12.9z M15,14.9c-0.1,0.4-0.6,0.5-1.2,0.4c-0.5-0.1-0.9-0.6-0.8-0.9c0.1-0.4,0.6-0.5,1.2-0.4
	C14.7,14.1,15.1,14.5,15,14.9z"/>
</svg>
