<?xml version="1.0" encoding="utf-8"?>
<!-- Generator: Adobe Illustrator 22.0.0, SVG Export Plug-In . SVG Version: 6.00 Build 0)  -->
<svg version="1.1" id="Calque_1" xmlns="http://www.w3.org/2000/svg" xmlns:xlink="http://www.w3.org/1999/xlink" x="0px" y="0px"
	 viewBox="0 0 24 24" style="enable-background:new 0 0 24 24;" xml:space="preserve">
<path d="M17.4,12.5l3-7.8L18.1,2h-12L3.8,4.7l3.3,7.8l-3.5,4.4h0v3L5.8,22h12.3l2.2-2.2v-3l0,0L17.4,12.5z M5.5,4.8l1.3-1.6h10.8
	l1.3,1.6L16.4,12h-1c-0.3-0.8-0.9-1.4-1.7-1.8L15,8.8L12.1,7L9.2,8.8l1.2,1.5c-0.7,0.4-1.3,1-1.7,1.8H8L5.5,4.8z M13.5,9.3
	c-0.2,0.2-0.4,0.3-0.5,0.4c-0.2,0.1-0.3,0.2-0.3,0.2s0.1-0.1,0.2-0.3c0.1-0.2,0.3-0.4,0.5-0.5c0.2-0.2,0.4-0.3,0.5-0.4
	c0.2-0.1,0.3-0.2,0.3-0.2S14.1,8.6,14,8.8C13.9,8.9,13.7,9.1,13.5,9.3z M12.3,8.6c0,0.2,0,0.4-0.1,0.5c0,0.1-0.1,0.2-0.1,0.2
	s0-0.1-0.1-0.2C12,9,12,8.8,12,8.6c0-0.2,0-0.4,0.1-0.5c0-0.1,0.1-0.2,0.1-0.2s0,0.1,0.1,0.2C12.3,8.3,12.3,8.5,12.3,8.6z M11.6,9.9
	c0,0-0.1-0.1-0.3-0.2c-0.2-0.1-0.4-0.3-0.5-0.4c-0.2-0.2-0.3-0.4-0.5-0.5c-0.1-0.2-0.2-0.3-0.2-0.3s0.1,0.1,0.3,0.2
	c0.2,0.1,0.4,0.3,0.5,0.4c0.2,0.2,0.3,0.4,0.5,0.5C11.5,9.8,11.6,9.9,11.6,9.9z M5.9,16.3l2.2-3.6h0.5c-0.1,0.3-0.1,0.6-0.1,0.9
	c0,0.8,0.2,1.5,0.6,2.1c0.2-0.2,0.5-0.1,0.8-0.3c-0.3-0.4-0.5-1.2-0.5-1.8c0-1.5,1.2-2.7,2.7-2.7c1.5,0,2.7,1.2,2.7,2.7
	c0,0.6-0.2,1.3-0.5,1.8c0.3,0.2,0.5,0.1,0.8,0.3c0.4-0.6,0.6-1.3,0.6-2.1c0-0.3,0-0.6-0.1-0.9h0.5l2,3.6H5.9z"/>
</svg>
