<?xml version="1.0" encoding="utf-8"?>
<!-- Generator: Adobe Illustrator 22.0.0, SVG Export Plug-In . SVG Version: 6.00 Build 0)  -->
<svg version="1.1" id="Calque_1" xmlns="http://www.w3.org/2000/svg" xmlns:xlink="http://www.w3.org/1999/xlink" x="0px" y="0px"
	 viewBox="0 0 24 24" style="enable-background:new 0 0 24 24;" xml:space="preserve">
<path d="M15.3,6.3V6V4.1c0-1.2-1-2.1-2.1-2.1H5.8C4.6,2,3.7,3,3.7,4.1v15.7c0,1.2,1,2.1,2.1,2.1h7.4c1.2,0,2.1-1,2.1-2.1v-2.2
	c2.5-0.3,4.4-2.2,4.9-4.7l0,0c0,0,0-0.1,0-0.1c0,0,0,0,0-0.1v0c0-0.3,0.1-0.5,0.1-0.8C20.3,9.1,18.1,6.7,15.3,6.3z M10.4,21.1H8.3
	c-0.3,0-0.6-0.2-0.6-0.6C7.8,20.2,8,20,8.3,20h2.1c0.3,0,0.6,0.2,0.6,0.6C11,20.8,10.7,21.1,10.4,21.1z M14.2,18.5
	c0,0.3-0.2,0.6-0.6,0.6H5.3c-0.3,0-0.6-0.2-0.6-0.6v-13c0-0.3,0.2-0.6,0.6-0.6h8.3c0.3,0,0.6,0.2,0.6,0.6v0.1V6v0.3
	C11.2,6.5,8.8,9,8.8,12c0,0.3,0,0.6,0.1,0.8l0,0c0,0,0,0,0,0.1c0.4,2.6,2.6,4.6,5.2,4.8L14.2,18.5L14.2,18.5z M14.6,16.1
	c-1.4,0-2.7-0.7-3.4-1.8c0.1,0,0.2-0.1,0.2-0.1c1-0.2,1.8-0.6,1.8-0.6c0.1-0.1,0.1-0.3,0.1-0.5c-0.2-0.3-0.4-0.7-0.4-1.1
	c-0.1,0-0.2-0.1-0.3-0.6c-0.2-0.6,0-0.7,0.2-0.7c-0.1-0.3-0.1-0.7,0-1C12.8,9.3,13,9,13.2,8.8c0.1-0.2,0.3-0.3,0.4-0.4
	c0.1-0.1,0.3-0.2,0.4-0.2l0,0l0,0c0.1,0,0.3-0.1,0.4-0.1c0.4,0,0.8,0.1,1,0.2C15.9,8.5,16,8.8,16,8.8s0.9,0.1,0.5,2l0,0
	c0.1,0,0.2,0.2,0.1,0.7c-0.2,0.6-0.3,0.6-0.4,0.6c0,0.3-0.2,0.7-0.4,1c0,0.2,0.1,0.4,0.2,0.5c0,0,0.8,0.4,1.8,0.6
	c0.1,0,0.2,0.1,0.2,0.1C17.3,15.4,16,16.1,14.6,16.1z"/>
</svg>
