<?xml version="1.0" encoding="utf-8"?>
<!-- Generator: Adobe Illustrator 22.1.0, SVG Export Plug-In . SVG Version: 6.00 Build 0)  -->
<svg version="1.1" id="Calque_1" xmlns="http://www.w3.org/2000/svg" xmlns:xlink="http://www.w3.org/1999/xlink" x="0px" y="0px"
	 viewBox="0 0 24 24" style="enable-background:new 0 0 24 24;" xml:space="preserve">
<path d="M5,5h2v2H5V5z M1,1l10,0v10H1V1z M3,3v6l6,0V3H3z M5,17h2v2H5V17z M1,13h10v10H1V13z M3,15v6h6v-6H3z M17,5h2v2h-2V5z M13,1
	l10,0v10H13V1z M15,3v6l6,0V3H15z M13,13h4v2h2v-2h4v2h-4v2h4v6h-4v-2h-4v2h-2v-2h2v-2h-2V13z M21,21v-2h-2v2H21z M19,17h-2v-2h-2v4
	h4V17z"/>
</svg>
