<?xml version="1.0" encoding="utf-8"?>
<!-- Generator: Adobe Illustrator 22.0.0, SVG Export Plug-In . SVG Version: 6.00 Build 0)  -->
<svg version="1.1" id="Calque_1" xmlns="http://www.w3.org/2000/svg" xmlns:xlink="http://www.w3.org/1999/xlink" x="0px" y="0px"
	 viewBox="0 0 24 24" style="enable-background:new 0 0 24 24;" xml:space="preserve">
<path d="M3.5,1.5c-1.1,0-2,0.9-2,2v11c0,1.1,0.9,2,2,2h2v-2h-2v-11h11v2h2v-2c0-1.1-0.9-2-2-2H3.5z M9.5,7.5c-1.1,0-2,0.9-2,2v2h2
	v-2h2v-2H9.5z M13.5,7.5v2h1v1h2v-3H13.5z M18.5,7.5v2h2v11h-11v-2h-2v2c0,1.1,0.9,2,2,2h11c1.1,0,2-0.9,2-2v-11c0-1.1-0.9-2-2-2
	H18.5z M14.5,12.5v2h-2v2h2c1.1,0,2-0.9,2-2v-2H14.5z M7.5,13.5v3h3v-2h-1v-1H7.5z"/>
</svg>
