<?xml version="1.0" encoding="utf-8"?>
<!-- Generator: Adobe Illustrator 22.0.0, SVG Export Plug-In . SVG Version: 6.00 Build 0)  -->
<svg version="1.1" id="Calque_1" xmlns="http://www.w3.org/2000/svg" xmlns:xlink="http://www.w3.org/1999/xlink" x="0px" y="0px"
	 viewBox="0 0 24 24" style="enable-background:new 0 0 24 24;" xml:space="preserve">
<g>
	<path d="M12.4,13.9c0.9-0.4,1.5-1.8,1.6-3.5c-0.5,0-1.1,0-1.6,0V13.9z"/>
	<path d="M11.6,13.9v-3.5c-0.6,0-1.2,0-1.6,0C10,12.1,10.7,13.5,11.6,13.9z"/>
	<path d="M9.9,9.5c0.5,0,1,0,1.6,0V6C10.7,6.4,10,7.8,9.9,9.5z"/>
	<path d="M9.9,6.5c-1,0.6-1.7,1.7-1.9,3c0.2,0,0.6,0,1.1,0C9.1,8.4,9.4,7.3,9.9,6.5z"/>
	<path d="M8,10.4c0.1,1.3,0.9,2.4,1.9,3c-0.5-0.8-0.8-1.8-0.8-3C8.6,10.4,8.3,10.4,8,10.4z"/>
	<path d="M20,2H4C2.9,2,2,2.9,2,4l0,12c0,1.1,0.9,2,2,2h4v3c0,0.6,0.4,1,1,1h0.5l0,0c0.3,0,0.5-0.1,0.7-0.3l3.7-3.7l6.1,0
		c1.1,0,2-0.9,2-2V4C22,2.9,21.1,2,20,2z M12,14.8L12,14.8C12,14.8,12,14.8,12,14.8c-2.7,0-4.8-2.2-4.8-4.9c0-2.7,2.2-4.8,4.8-4.9
		c0,0,0,0,0,0c0,0,0,0,0,0c2.7,0,4.8,2.2,4.8,4.9C16.9,12.6,14.7,14.8,12,14.8z"/>
	<path d="M14.1,6.5c0.5,0.8,0.8,1.8,0.8,3c0.3,0,0.7,0,1.1,0C15.9,8.3,15.1,7.2,14.1,6.5z"/>
	<path d="M14.1,13.4c1-0.6,1.8-1.7,1.9-3c-0.4,0-0.7,0-1.1,0C14.8,11.5,14.5,12.6,14.1,13.4z"/>
	<path d="M12.4,6v3.5c0.5,0,1,0,1.6,0C14,7.8,13.3,6.4,12.4,6z"/>
</g>
</svg>
