<?xml version="1.0" encoding="utf-8"?>
<!-- Generator: Adobe Illustrator 22.0.0, SVG Export Plug-In . SVG Version: 6.00 Build 0)  -->
<svg version="1.1" id="Calque_1" xmlns="http://www.w3.org/2000/svg" xmlns:xlink="http://www.w3.org/1999/xlink" x="0px" y="0px"
	 viewBox="0 0 24 24" style="enable-background:new 0 0 24 24;" xml:space="preserve">
<path d="M15.6,16.8L12,14.5l-3.6,2.3l1.1-4.1L6.2,10l4.2-0.2L12,5.8l1.5,3.9l4.2,0.2l-3.3,2.7L15.6,16.8z M20,12c0-1.1,0.9-2,2-2V6
	c0-1.1-0.9-2-2-2H4C2.9,4,2,4.9,2,6l0,4c1.1,0,2,0.9,2,2c0,1.1-0.9,2-2,2l0,4c0,1.1,0.9,2,2,2h16c1.1,0,2-0.9,2-2v-4
	C20.9,14,20,13.1,20,12z"/>
</svg>
