<?xml version="1.0" encoding="utf-8"?>
<!-- Generator: Adobe Illustrator 22.1.0, SVG Export Plug-In . SVG Version: 6.00 Build 0)  -->
<svg version="1.1" id="Calque_1" xmlns="http://www.w3.org/2000/svg" xmlns:xlink="http://www.w3.org/1999/xlink" x="0px" y="0px"
	 viewBox="0 0 24 24" style="enable-background:new 0 0 24 24;" xml:space="preserve">
<g>
	<rect x="1.4" y="6.1" width="2" height="11.8"/>
	<rect x="4.7" y="4.8" width="2" height="14.3"/>
	<rect x="7.9" y="7.5" width="2" height="9"/>
	<rect x="11.2" y="8.6" width="2" height="6.8"/>
</g>
<path d="M16.9,2h-7c-1.1,0-2,0.9-2,2l0,1.5h2V4h4v7h7v9h-7h-4v-1.5h-2l0,1.5c0,1.1,0.9,2,2,2h11c1.1,0,2-0.9,2-2V8L16.9,2z M15.9,9
	V3.5L21.4,9H15.9z"/>
</svg>
