<?xml version="1.0" encoding="utf-8"?>
<!-- Generator: Adobe Illustrator 22.1.0, SVG Export Plug-In . SVG Version: 6.00 Build 0)  -->
<svg version="1.1" id="Calque_1" xmlns="http://www.w3.org/2000/svg" xmlns:xlink="http://www.w3.org/1999/xlink" x="0px" y="0px"
	 viewBox="0 0 24 24" style="enable-background:new 0 0 24 24;" xml:space="preserve">
<path d="M10,13c0-3.4-1.4-4.5-2.2-4.8C7.3,9.2,6.2,10,5,10c-1.7,0-3-1.3-3-3c0-1.7,1.3-3,3-3c1.3,0,2.4,0.8,2.8,2h8.3
	c0.4-1.2,1.5-2,2.8-2c1.7,0,3,1.3,3,3s-1.3,3-3,3c-1.3,0-2.4-0.8-2.8-2h-5.3c0.7,0.9,1.1,2.2,1.1,4c0,2.7,1.3,3.6,2.2,3.9
	c0.5-1.1,1.5-1.9,2.8-1.9c1.7,0,3,1.3,3,3s-1.3,3-3,3c-1.3,0-2.5-0.9-2.9-2.1C12.7,17.7,10,16.7,10,13z M6,7c0-0.6-0.4-1-1-1
	S4,6.4,4,7c0,0.6,0.4,1,1,1S6,7.6,6,7z M20,7c0-0.6-0.4-1-1-1c-0.6,0-1,0.4-1,1c0,0.6,0.4,1,1,1C19.6,8,20,7.6,20,7z M18,17
	c0-0.6-0.4-1-1-1c-0.6,0-1,0.4-1,1s0.4,1,1,1C17.6,18,18,17.6,18,17z"/>
</svg>
