<?xml version="1.0" encoding="utf-8"?>
<!-- Generator: Adobe Illustrator 22.0.0, SVG Export Plug-In . SVG Version: 6.00 Build 0)  -->
<svg version="1.1" id="Calque_1" xmlns="http://www.w3.org/2000/svg" xmlns:xlink="http://www.w3.org/1999/xlink" x="0px" y="0px"
	 viewBox="0 0 24 24" style="enable-background:new 0 0 24 24;" xml:space="preserve">
<path d="M22,9.2l-7.2-0.6L12,2L9.2,8.6L2,9.2L7.5,14l-1.6,7l6.2-3.7l6.2,3.7l-1.6-7L22,9.2z M8.8,16.8l0.6-2.4l0.3-1.2l-0.9-0.8
	l-1.9-1.6l2.5-0.2l1.2-0.1L11,9.4l1-2.3l1,2.3l0.5,1.1l1.2,0.1l2.5,0.2l-1.9,1.6l-0.9,0.8l0.3,1.2l0.6,2.4L13,15.6l-1-0.6l-1,0.6
	L8.8,16.8z"/>
</svg>
