<?xml version="1.0" encoding="utf-8"?>
<!-- Generator: Adobe Illustrator 22.0.0, SVG Export Plug-In . SVG Version: 6.00 Build 0)  -->
<svg version="1.1" id="Calque_1" xmlns="http://www.w3.org/2000/svg" xmlns:xlink="http://www.w3.org/1999/xlink" x="0px" y="0px"
	 viewBox="0 0 24 24" style="enable-background:new 0 0 24 24;" xml:space="preserve">
<g>
	<path d="M2,1.6v20.7h20V1.6H2z M20,20.4H4V3.6h16V20.4z"/>
	<path d="M14,14.6c0,0.6,0.9,1,1.5,1H18v-2h-2c-0.5,0-0.9-0.3-1-0.8h0V8.6c0-0.6,0.4-1,1-1h2v-2h-2.5c-0.6,0-1.5,0.4-1.5,1
		c0-0.6-0.9-1-1.5-1H10v2h2c0.6,0,1,0.4,1,1v4c0,0.6-0.4,1-1,1h-2v2h2.5C13.1,15.6,14,15.2,14,14.6z"/>
</g>
</svg>
