<?xml version="1.0" encoding="utf-8"?>
<!-- Generator: Adobe Illustrator 22.0.0, SVG Export Plug-In . SVG Version: 6.00 Build 0)  -->
<svg version="1.1" id="Calque_1" xmlns="http://www.w3.org/2000/svg" xmlns:xlink="http://www.w3.org/1999/xlink" x="0px" y="0px"
	 viewBox="0 0 24 24" style="enable-background:new 0 0 24 24;" xml:space="preserve">
<path d="M9,22c-0.6,0-1-0.4-1-1l0-3H4c-1.1,0-2-0.9-2-2L2,4c0-1.1,0.9-2,2-2h16c1.1,0,2,0.9,2,2v12c0,1.1-0.9,2-2,2l-6.1,0l-3.7,3.7
	C10,21.9,9.8,22,9.5,22l0,0H9z M17,11V9h-2v2H17z M13,11V9h-2v2H13z M9,11V9H7v2H9z"/>
</svg>
