<?xml version="1.0" encoding="utf-8"?>
<!-- Generator: Adobe Illustrator 22.0.0, SVG Export Plug-In . SVG Version: 6.00 Build 0)  -->
<svg version="1.1" id="Calque_1" xmlns="http://www.w3.org/2000/svg" xmlns:xlink="http://www.w3.org/1999/xlink" x="0px" y="0px"
	 viewBox="0 0 24 24" style="enable-background:new 0 0 24 24;" xml:space="preserve">
<g>
	<path d="M18,10.7v-3c0-0.5-0.5-0.8-1.1-0.8H10c0,0.1,0,0.2,0,0.3v3.4h0.5h1.5h1v1c0,2.3-1.4,4.4-3.4,5.4h7.3c0.6,0,1.1-0.4,1.1-0.8
		v-3l4.3,3.4V7.4L18,10.7z"/>
	<path d="M6.8,13.8C6.8,13.8,6.8,13.8,6.8,13.8c1.2,0,2.2-1,2.2-2.2V7.3c0-0.1,0-0.2,0-0.3c-0.2-1-1.1-1.8-2.1-1.8
		c-1.2,0-2.2,1-2.2,2.2v4.4C4.7,12.8,5.6,13.8,6.8,13.8z"/>
	<path d="M11.9,11.6h-1.5c0,2-1.6,3.6-3.6,3.6c-2,0-3.6-1.6-3.6-3.6H1.8c0,2.6,1.9,4.7,4.4,5v2.2h1.5V17v-0.3
		C10,16.3,11.9,14.2,11.9,11.6z"/>
</g>
</svg>
